<?xml version="1.0" standalone="no"?>
<!DOCTYPE svg PUBLIC "-//W3C//DTD SVG 20010904//EN"
 "http://www.w3.org/TR/2001/REC-SVG-20010904/DTD/svg10.dtd">
<svg version="1.0" xmlns="http://www.w3.org/2000/svg"
 width="512.000000pt" height="512.000000pt" viewBox="0 0 512.000000 512.000000"
 preserveAspectRatio="xMidYMid meet">
<metadata>
Created by potrace 1.14, written by Peter Selinger 2001-2017
</metadata>
<g transform="translate(0.000000,512.000000) scale(0.100000,-0.100000)"
fill="#000000" stroke="none">
<path d="M2590 4777 c-97 -35 -180 -108 -227 -200 l-19 -38 -26 21 c-132 103
-337 103 -476 -2 -103 -77 -153 -175 -157 -308 l-3 -85 -32 -3 c-24 -3 -39 3
-59 21 -37 36 -121 61 -177 53 -131 -17 -209 -108 -209 -241 0 -100 38 -161
135 -216 20 -11 116 -15 501 -19 l476 -5 -98 -200 c-53 -110 -117 -240 -141
-290 -82 -170 -86 -175 -115 -164 -45 17 -151 21 -206 9 -74 -18 -143 -55
-193 -105 -24 -23 -44 -38 -44 -31 -4 98 -59 216 -135 283 -76 68 -156 98
-265 98 -123 0 -194 -29 -280 -116 -75 -76 -108 -146 -116 -249 -3 -36 -7 -66
-8 -67 -1 -2 -25 6 -53 17 -69 26 -170 21 -238 -11 -244 -115 -242 -469 4
-583 45 -21 55 -21 758 -24 l713 -3 72 26 c40 14 77 26 83 27 14 4 33 -98 28
-157 -5 -69 -28 -135 -65 -187 -18 -24 -156 -165 -307 -315 l-275 -272 -347
-3 c-333 -3 -349 -4 -375 -24 -48 -36 -66 -69 -70 -127 -2 -44 2 -61 21 -89
42 -61 68 -72 188 -76 59 -2 107 -6 107 -8 0 -25 85 -375 100 -414 54 -138
168 -239 319 -284 48 -14 176 -16 1185 -15 1065 0 1134 1 1188 18 147 47 261
157 314 301 16 44 57 221 80 340 11 60 7 58 124 62 104 3 110 5 147 34 70 57
82 158 25 225 -48 58 -56 59 -466 59 l-375 0 4 23 c5 31 24 163 30 217 3 25 8
54 10 65 2 11 4 40 4 65 l1 45 190 113 c202 121 247 158 285 237 31 65 33 79
34 273 l1 162 183 0 c216 0 262 10 340 74 75 61 111 136 114 235 2 100 -22
165 -88 232 -60 61 -120 89 -207 96 -53 4 -79 1 -122 -16 -69 -26 -70 -26 -70
2 0 42 -57 140 -102 177 -69 57 -121 75 -213 74 -66 0 -89 -5 -130 -26 -27
-15 -63 -39 -78 -53 l-28 -27 -25 27 c-13 14 -50 38 -82 53 -47 22 -71 27
-137 27 -68 0 -88 -4 -134 -29 -121 -63 -190 -181 -178 -306 l5 -58 -38 -5
c-191 -25 -277 -261 -146 -400 69 -73 61 -72 459 -75 l358 -3 -6 -37 c-16
-106 -75 -198 -158 -247 -23 -13 -108 -46 -189 -73 l-147 -49 -95 66 c-52 36
-220 152 -373 256 -324 222 -326 224 -368 290 -58 92 -72 179 -49 291 8 35 16
77 19 92 2 15 29 140 60 277 30 138 55 251 55 253 0 1 204 2 453 2 491 0 510
2 603 56 59 35 126 110 158 178 51 107 46 253 -11 356 -29 51 -111 140 -129
140 -7 0 -14 4 -16 8 -8 21 -115 54 -186 58 -117 6 -216 -31 -298 -110 -38
-38 -44 -40 -45 -22 -5 141 -116 294 -250 346 -84 33 -199 36 -279 7z"/>
</g>
</svg>
